<?xml version="1.0" encoding="UTF-8"?>
<svg width="585px" height="249px" viewBox="0 0 585 249" version="1.1" xmlns="http://www.w3.org/2000/svg" xmlns:xlink="http://www.w3.org/1999/xlink">
    <g id="Page-1" stroke="none" stroke-width="1" fill="none" fill-rule="evenodd">
        <g id="Desktop-HD" transform="translate(-428.000000, -443.000000)" fill="#FFFFFF">
            <g id="Group" transform="translate(428.000000, 443.000000)">
                <path d="M349.048264,0.378641658 C418.054035,3.94184282 461.7012,10.6805305 479.98976,20.5947046 C403.549221,24.7401557 366.413076,26.8128812 368.581325,26.8128812 C441.082217,26.8128812 496.843995,38.6807991 535.866659,62.4166349 C471.018314,56.7855308 426.31014,55.078228 401.742139,57.2947264 C461.167157,62.824657 516.513036,79.8005054 567.779774,108.222272 C522.650901,103.671478 473.270016,98.5522322 419.63712,92.8645337 C518.220552,117.179455 573.341512,138.059136 585,155.503577 C518.427379,139.416469 469.492181,133.793273 438.194406,138.63399 C486.316847,147.870406 564.707238,160.301606 567.779774,181.722444 C561.055666,197.339221 553.492107,219.374102 545.089096,247.827086 L544.743294,249 L2.84217094e-13,249 C12.2079019,207.715211 19.5624565,182.847217 22.063664,174.39602 C102.180616,151.851956 127.30883,120.837151 127.30883,108.222272 C127.30883,103.000027 114.559036,101.185407 110.125815,100.621315 C110.125815,17.9248395 279.439805,-3.21568008 349.048264,0.378641658 Z M209.764568,185.210937 C205.750571,185.210937 202.043865,185.950358 198.644451,187.429199 C195.245037,188.90804 192.392986,190.88623 190.088299,193.36377 C187.725994,195.918132 185.911053,198.875814 184.643474,202.236816 C183.375896,205.597819 182.742107,209.141276 182.742107,212.867187 C182.742107,218.167969 184.398601,222.330811 187.71159,225.355713 C191.024578,228.380615 195.609946,229.893066 201.467693,229.893066 C205.769777,229.893066 209.572511,229.158447 212.875896,227.689209 C216.179282,226.219971 219.069744,224.102539 221.547283,221.336914 C223.813559,218.801758 225.542075,215.834473 226.73283,212.435059 C227.923585,209.035645 228.518963,205.578613 228.518963,202.063965 C228.518963,196.897624 226.862469,192.797201 223.54948,189.762695 C220.236492,186.72819 215.641521,185.210937 209.764568,185.210937 Z M345.901651,185.326172 C339.314086,185.326172 334.123738,186.608154 330.330607,189.172119 C326.537475,191.736084 324.640909,195.169108 324.640909,199.471191 C324.640909,201.180501 324.943399,202.64974 325.54838,203.878906 C326.15336,205.108073 327.041625,206.193197 328.213175,207.134277 C329.384724,208.056152 330.801147,208.85319 332.462442,209.525391 C334.123738,210.197591 336.001098,210.821777 338.094523,211.397949 C339.99589,211.93571 341.546752,212.411051 342.74711,212.823975 C343.947468,213.236898 344.893351,213.654622 345.584757,214.077148 C346.276163,214.499674 346.741902,214.927002 346.981974,215.359131 C347.222045,215.79126 347.342081,216.305013 347.342081,216.900391 C347.342081,218.494466 346.602661,219.718831 345.123819,220.573486 C343.644978,221.428141 341.330688,221.855469 338.180948,221.855469 C335.108032,221.855469 332.236775,221.360921 329.567179,220.371826 C327.075556,219.448671 324.885078,218.169996 322.995746,216.535802 L322.595499,216.180176 L321.385538,216.180176 L319.167276,226.464844 C321.260701,227.405924 323.743041,228.193359 326.614298,228.827148 C329.485554,229.460937 332.75533,229.777832 336.423624,229.777832 C339.727009,229.777832 342.684692,229.489746 345.296671,228.913574 C347.90865,228.337402 350.242146,227.42513 352.297159,226.176758 C354.256144,225.005208 355.792602,223.478353 356.906534,221.596191 C358.020467,219.71403 358.577433,217.53418 358.577433,215.056641 C358.577433,212.098958 357.549926,209.755859 355.494913,208.027344 C353.4399,206.298828 350.011677,204.791178 345.210245,203.504395 C343.424112,203.024251 341.868448,202.558512 340.543253,202.107178 C339.218058,201.655843 338.248168,201.238118 337.633585,200.854004 C336.922973,200.431478 336.452433,199.999349 336.221964,199.557617 C335.991495,199.115885 335.876261,198.558919 335.876261,197.886719 C335.876261,196.427083 336.654093,195.284342 338.209757,194.458496 C339.765421,193.63265 341.964477,193.219727 344.806925,193.219727 C347.70699,193.219727 350.381388,193.685465 352.830118,194.616943 C355.1156,195.486323 356.987006,196.552283 358.444337,197.814825 L358.750284,198.088379 L359.931437,198.088379 L362.034464,188.207031 C360.07548,187.323568 357.689168,186.622559 354.875528,186.104004 C352.061889,185.585449 349.070597,185.326172 345.901651,185.326172 Z M518.506304,185.326172 C511.918739,185.326172 506.728391,186.608154 502.935259,189.172119 C499.142128,191.736084 497.245562,195.169108 497.245562,199.471191 C497.245562,201.180501 497.548052,202.64974 498.153033,203.878906 C498.758013,205.108073 499.646278,206.193197 500.817827,207.134277 C501.989377,208.056152 503.405799,208.85319 505.067095,209.525391 C506.728391,210.197591 508.605751,210.821777 510.699175,211.397949 C512.600542,211.93571 514.151405,212.411051 515.351763,212.823975 C516.552121,213.236898 517.498003,213.654622 518.189409,214.077148 C518.880816,214.499674 519.346555,214.927002 519.586626,215.359131 C519.826698,215.79126 519.946734,216.305013 519.946734,216.900391 C519.946734,218.494466 519.207313,219.718831 517.728472,220.573486 C516.249631,221.428141 513.93534,221.855469 510.785601,221.855469 C507.712684,221.855469 504.841428,221.360921 502.171831,220.371826 C499.680208,219.448671 497.489731,218.169996 495.600399,216.535802 L495.200152,216.180176 L493.990191,216.180176 L491.771929,226.464844 C493.865353,227.405924 496.347694,228.193359 499.21895,228.827148 C502.090207,229.460937 505.359982,229.777832 509.028277,229.777832 C512.331662,229.777832 515.289344,229.489746 517.901324,228.913574 C520.513303,228.337402 522.846799,227.42513 524.901812,226.176758 C526.860796,225.005208 528.397255,223.478353 529.511187,221.596191 C530.625119,219.71403 531.182085,217.53418 531.182085,215.056641 C531.182085,212.098958 530.154579,209.755859 528.099566,208.027344 C526.044553,206.298828 522.61633,204.791178 517.814898,203.504395 C516.028765,203.024251 514.473101,202.558512 513.147906,202.107178 C511.82271,201.655843 510.852821,201.238118 510.238238,200.854004 C509.527626,200.431478 509.057085,199.999349 508.826617,199.557617 C508.596148,199.115885 508.480913,198.558919 508.480913,197.886719 C508.480913,196.427083 509.258745,195.284342 510.814409,194.458496 C512.370074,193.63265 514.56913,193.219727 517.411577,193.219727 C520.311643,193.219727 522.98604,193.685465 525.434771,194.616943 C527.720253,195.486323 529.591659,196.552283 531.04899,197.814825 L531.354937,198.088379 L532.536089,198.088379 L534.639117,188.207031 C532.680132,187.323568 530.29382,186.622559 527.480181,186.104004 C524.666542,185.585449 521.675249,185.326172 518.506304,185.326172 Z M53.0046422,186.104004 L39.1189,186.104004 L29.2087438,229 L44.7365758,229 C48.4048701,229 51.5546097,228.783936 54.1857946,228.351807 C56.8169795,227.919678 59.3425328,227.050618 61.7624547,225.744629 C65.7572464,223.555176 69.0318232,220.405436 71.5861852,216.29541 C74.1405472,212.185384 75.4177282,207.700846 75.4177282,202.841797 C75.4177282,199.845703 74.8655634,197.257731 73.761234,195.077881 C72.6569046,192.898031 71.0484248,191.078288 68.9357946,189.618652 C67.3993362,188.543132 65.3827347,187.688477 62.8859899,187.054687 C60.5140823,186.452588 57.4228482,186.136486 53.6122875,186.106381 L53.0046422,186.104004 Z M120.182173,186.104004 L89.0976999,186.104004 L79.1875436,229 L110.272016,229 L112.115766,220.875977 L92.0937936,220.875977 L94.6001413,210.043945 L113.181684,210.043945 L115.083051,201.891113 L96.5015085,201.891113 L98.2876413,194.228027 L118.309614,194.228027 L120.182173,186.104004 Z M182.342897,186.104004 L151.575319,186.104004 L141.665163,229 L152.727663,229 L156.962526,210.677734 L175.227175,210.677734 L177.128542,202.380859 L158.863893,202.380859 L160.707643,194.400879 L180.412722,194.400879 L182.342897,186.104004 Z M258.850302,186.104004 L242.112509,186.104004 L232.202352,229 L243.264852,229 L246.894735,213.270508 L253.117392,213.270508 L261.183798,229 L273.542685,229 L263.632528,210.879395 C267.224,209.688639 270.066448,207.921712 272.159872,205.578613 C274.253296,203.235514 275.300009,200.345052 275.300009,196.907227 C275.300009,193.258138 273.869182,190.545329 271.007528,188.768799 C268.244552,187.053529 264.371526,186.16632 259.38845,186.107173 L258.850302,186.104004 Z M320.352539,186.104004 L289.268066,186.104004 L279.35791,229 L310.442383,229 L312.286133,220.875977 L292.26416,220.875977 L294.770508,210.043945 L313.352051,210.043945 L315.253418,201.891113 L296.671875,201.891113 L298.458008,194.228027 L318.47998,194.228027 L320.352539,186.104004 Z M407.115803,186.104004 L369.261311,186.104004 L367.359943,194.400879 L380.727131,194.400879 L372.747151,229 L383.867268,229 L391.847248,194.400879 L405.214436,194.400879 L407.115803,186.104004 Z M445.801634,186.104004 L414.717161,186.104004 L404.807005,229 L435.891478,229 L437.735228,220.875977 L417.713255,220.875977 L420.219603,210.043945 L438.801146,210.043945 L440.702513,201.891113 L422.12097,201.891113 L423.907103,194.228027 L443.929075,194.228027 L445.801634,186.104004 Z M472.762367,186.104004 L456.024574,186.104004 L446.114418,229 L457.176918,229 L460.806801,213.270508 L467.029457,213.270508 L475.095864,229 L487.45475,229 L477.544594,210.879395 C481.136065,209.688639 483.978513,207.921712 486.071938,205.578613 C488.165362,203.235514 489.212074,200.345052 489.212074,196.907227 C489.212074,193.258138 487.781248,190.545329 484.919594,188.768799 C482.156618,187.053529 478.283592,186.16632 473.300516,186.107173 L472.762367,186.104004 Z M208.381756,193.133301 C211.108969,193.133301 213.207195,194.00236 214.676433,195.740479 C216.145672,197.478597 216.880291,199.884115 216.880291,202.957031 C216.880291,205.895508 216.510581,208.493083 215.77116,210.749756 C215.031739,213.006429 214.009034,214.989421 212.703045,216.69873 C211.435467,218.388835 209.947023,219.690023 208.237713,220.602295 C206.528403,221.514567 204.751873,221.970703 202.908123,221.970703 C200.238527,221.970703 198.149904,221.135254 196.642254,219.464355 C195.134604,217.793457 194.380779,215.315918 194.380779,212.031738 C194.380779,209.074056 194.784099,206.409261 195.59074,204.037354 C196.397381,201.665446 197.463299,199.682454 198.788494,198.088379 C200.152101,196.41748 201.645346,195.17391 203.26823,194.357666 C204.891114,193.541423 206.595623,193.133301 208.381756,193.133301 Z M51.7946813,193.939941 C52.9278193,193.939941 53.9361201,193.978353 54.8195836,194.055176 C55.7414586,194.151204 56.5625036,194.300049 57.2827184,194.501709 C58.0029332,194.703369 58.7087438,194.996257 59.40015,195.380371 C60.8981969,196.244629 62.0121292,197.382568 62.7419469,198.794189 C63.4717646,200.205811 63.8366735,201.891113 63.8366735,203.850098 C63.8366735,207.191895 63.0924515,210.274414 61.6040075,213.097656 C60.1155634,215.920898 57.9885289,218.043132 55.2229039,219.464355 C54.2434118,219.963704 53.3455439,220.31901 52.5293004,220.530273 C51.7130569,220.741536 50.7959834,220.895182 49.7780797,220.991211 C48.9906448,221.08724 47.9631383,221.135254 46.6955602,221.135254 L42.1149938,221.135254 L48.4528844,193.939941 L51.7946813,193.939941 Z M256.8337,193.997559 C258.984742,193.997559 260.612427,194.357666 261.716757,195.077881 C262.821086,195.798096 263.373251,197.022461 263.373251,198.750977 C263.373251,200.882812 262.56661,202.54891 260.953329,203.749268 C259.340048,204.949626 257.064169,205.549805 254.125692,205.549805 L248.680868,205.549805 L251.360067,193.997559 L256.8337,193.997559 Z M470.745766,193.997559 C472.896808,193.997559 474.524493,194.357666 475.628823,195.077881 C476.733152,195.798096 477.285317,197.022461 477.285317,198.750977 C477.285317,200.882812 476.478676,202.54891 474.865395,203.749268 C473.252114,204.949626 470.976235,205.549805 468.037758,205.549805 L462.592934,205.549805 L465.272133,193.997559 L470.745766,193.997559 Z M277.613941,16.5499266 C246.131667,23.2134831 183.001351,40.0760987 163.708635,60.5633043 C272.486631,54.4407239 244.679357,108.408255 177.166724,160.099209 L474.691377,160.099209 L256.93927,137.464467 L441.269167,118.072901 L263.720158,106.071619 L421.94528,72.8412814 L263.720158,70.5084987 L395.55742,42.8427162 L244.679357,42.8427162 L358.450159,13.6985717 C316.853916,12.9971993 289.90851,13.947651 277.613941,16.5499266 Z M166.6676,102.265201 C159.565914,105.931308 153.977784,109.120241 156.064054,113.361512 C156.940452,115.143183 179.399712,123.72123 185.373476,104.07959 C186.702698,99.7091272 173.769286,98.5990946 166.6676,102.265201 Z" id="Combined-Shape"></path>
            </g>
        </g>
    </g>
</svg>